<?xml version="1.0" standalone="no"?>
<!DOCTYPE svg PUBLIC "-//W3C//DTD SVG 20010904//EN"
 "http://www.w3.org/TR/2001/REC-SVG-20010904/DTD/svg10.dtd">
<svg version="1.0" xmlns="http://www.w3.org/2000/svg"
 width="260.000000pt" height="260.000000pt" viewBox="0 0 260.000000 260.000000"
 preserveAspectRatio="xMidYMid meet">
<metadata>
Created by potrace 1.14, written by Peter Selinger 2001-2017
</metadata>
<g transform="translate(0.000000,260.000000) scale(0.100000,-0.100000)"
fill="#000000" stroke="none">
<path d="M0 1300 l0 -1300 1300 0 1300 0 0 1300 0 1300 -1300 0 -1300 0 0
-1300z m1502 912 c257 -69 391 -255 333 -468 -26 -97 -82 -174 -239 -329 -209
-205 -246 -270 -246 -430 l0 -85 -135 0 -135 0 -6 25 c-3 14 -4 67 -2 118 4
75 10 104 35 157 38 82 111 173 219 274 150 139 210 245 202 356 -10 141 -124
211 -341 211 -106 0 -217 -22 -301 -59 l-43 -19 -41 83 -42 84 38 19 c164 84
507 114 704 63z m-164 -1559 c90 -55 105 -156 36 -233 -118 -130 -374 -62
-374 99 0 106 95 176 228 167 47 -3 75 -11 110 -33z"/>
</g>
</svg>
